<?xml version="1.0" encoding="utf-8"?>
<!-- Generator: Adobe Illustrator 23.0.1, SVG Export Plug-In . SVG Version: 6.00 Build 0)  -->
<svg version="1.1" xmlns="http://www.w3.org/2000/svg" xmlns:xlink="http://www.w3.org/1999/xlink" x="0px" y="0px"
	 viewBox="0 0 1366 768" style="enable-background:new 0 0 1366 768;" xml:space="preserve">
<style type="text/css">
	.st0{display:none;}
	.st1{display:inline;fill-rule:evenodd;clip-rule:evenodd;fill:#29333C;}
	.st2{display:inline;fill-rule:evenodd;clip-rule:evenodd;fill:#A3966F;}
	.st3{display:inline;fill-rule:evenodd;clip-rule:evenodd;fill:#C6BB8D;}
	.st4{display:inline;fill-rule:evenodd;clip-rule:evenodd;fill:#A09D90;}
	.st5{display:inline;fill-rule:evenodd;clip-rule:evenodd;fill:#DFDFDE;}
	.st6{display:inline;fill-rule:evenodd;clip-rule:evenodd;fill:#AEAFB0;}
	.st7{display:inline;opacity:0.9;fill:#E6EBEF;}
	.st8{display:none;fill:#71717C;}
	.st9{font-family:'Oswald-Demi-BoldItalic';}
	.st10{font-size:23.3442px;}
	.st11{display:none;opacity:0.8;}
	.st12{display:inline;opacity:0.25;fill:#1D1D23;}
	.st13{display:none;fill:#A5A5AF;}
	.st14{font-family:'Oswald-Light';}
	.st15{font-size:14px;}
	.st16{clip-path:url(#SVGID_3_);}
	.st17{clip-path:url(#SVGID_4_);fill-rule:evenodd;clip-rule:evenodd;fill:#29333C;}
	.st18{clip-path:url(#SVGID_4_);}
	.st19{opacity:0.07;fill:#21282D;}
	.st20{fill:none;}
	.st21{fill-rule:evenodd;clip-rule:evenodd;fill:#29333C;}
	.st22{fill-rule:evenodd;clip-rule:evenodd;fill:#A3966F;}
	.st23{fill-rule:evenodd;clip-rule:evenodd;fill:#C6BB8D;}
	.st24{fill-rule:evenodd;clip-rule:evenodd;fill:#A09D90;}
	.st25{fill-rule:evenodd;clip-rule:evenodd;fill:#DFDFDE;}
	.st26{fill-rule:evenodd;clip-rule:evenodd;fill:#AEAFB0;}
	.st27{opacity:0.9;fill:#E6EBEF;}
	.st28{fill-rule:evenodd;clip-rule:evenodd;fill:none;stroke:#EADE86;stroke-width:3;stroke-miterlimit:10;}
	.st29{fill:none;stroke:#EADE86;stroke-miterlimit:10;stroke-dasharray:3.9673,7.9346;}
	.st30{fill:#71717C;}
	.st31{font-size:23.9549px;}
	.st32{opacity:0.8;}
	.st33{opacity:0.25;fill:#1D1D23;}
	.st34{fill:#A5A5AF;}
	.st35{font-size:9.3161px;}
</style>
<g id="background-color">
</g>
<g id="bckground-texture">
</g>
<g id="blade">
</g>
<g id="collar">
</g>
<g id="name" class="st0">
</g>
<g id="pocket-outline">
	<g class="st0">
		<ellipse class="st1" cx="593.44" cy="303.4" rx="1.04" ry="1.18"/>
		<path id="XMLID_174_" class="st2" d="M575.77,270.45c0.25-0.19,0.52-0.32,0.79-0.37c0.12-0.03,0.24-0.04,0.35-0.04
			c0.53,0,1.07,0.25,1.47,0.72c4.12,4.88,17.42,21.16,20.62,31.72c1.37,4.52-3.1,7.54-5.87,5.22c-0.46-0.37-0.86-0.91-1.19-1.6
			c-4.29-9.02-12.59-26.15-16.61-32.27C574.61,272.75,574.82,271.22,575.77,270.45z"/>
		<path id="XMLID_172_" class="st3" d="M577.83,268.94c2.47-0.18,3.05-2.17,3.17-3.34c0.02-0.25,0.13-0.49,0.28-0.65
			c0.15-0.16,0.35-0.27,0.57-0.29c0.57-0.05,1.03,0.49,0.97,1.14c-0.24,2.62-3.17,4.91-3.17,4.91s-0.5,1.34-1.59,2.1
			c-3.46,3.87-6.26,10.35-6.26,10.35l1.28,2.18l0.65,1.11c0.36,0.62,0.4,1.43,0.07,2.1l-9.33,19.2c-0.22,0.45-0.61,0.79-1.06,0.87
			c-0.49,0.11-0.98,0.21-1.46,0.27c-1.63,0.22-3.12,0.11-4.15-1.01C561.3,299.4,575.04,271.29,577.83,268.94z"/>
		<path id="XMLID_158_" class="st4" d="M572.58,285.53l0.96,0.78c0.53,0.43,0.67,1.12,0.33,1.79l-9.7,19.01
			c-0.23,0.45-0.68,0.84-1.25,1.04c-0.61,0.22-1.23,0.45-1.83,0.63L572.58,285.53z"/>
		<path id="XMLID_176_" class="st5" d="M577.16,270.58c0.05-0.01,0.09-0.01,0.14-0.01c0.03,0,0.05,0,0.08,0
			c0.43,0.04,0.77,0.46,0.77,0.96s-0.34,0.92-0.77,0.96c-0.03,0-0.05,0-0.08,0c-0.05,0-0.1,0-0.14-0.01
			c-0.4-0.07-0.72-0.47-0.72-0.96C576.45,271.03,576.76,270.63,577.16,270.58z"/>
		<path id="XMLID_146_" class="st6" d="M577.31,270.55c0.03,0,0.05,0,0.08,0v1.94c-0.03,0-0.05,0-0.08,0c-0.05,0-0.1,0-0.14-0.01
			v-1.93C577.21,270.55,577.25,270.54,577.31,270.55z"/>
		<polygon class="st7" points="578.45,268.09 540.3,236.04 538.42,229 527,248.12 557.21,294.92 		"/>
		<polygon class="st7" points="578.55,268.09 616.7,236.04 618.58,229 630,248.12 599.79,294.92 		"/>
	</g>
	<text transform="matrix(0.8176 0 0 1 533.4131 332.1221)" class="st8 st9 st10">Gio’s  House</text>
	<text transform="matrix(0.8176 0 0 1 534.4131 333.1221)" class="st11"><tspan x="0" y="0" class="st12 st9 st10">Gio’s  House</tspan></text>
	<text transform="matrix(1 0 0 1 534.75 351.3472)" class="st13 st14 st15">Bespoke</text>
	<text transform="matrix(1 0 0 1 577.75 351.3472)" class="st13 st14 st15">| Barber</text>
	<g>
		<g>
			<defs>
				<path id="SVGID_1_" d="M648.4,257.47l0.73,130.63c0.04,6.62-2.18,12.75-5.82,16.09l-64.26,58.9
					c-9.96,9.13-26.35,9.23-36.41,0.21l-64.92-58.16c-3.67-3.29-5.96-9.4-5.99-16.02L471,257.67c-0.06-10.26,5.21-18.6,11.75-18.6
					L636.53,239C643.03,239,648.34,247.25,648.4,257.47z"/>
			</defs>
			<defs>
				<path id="SVGID_2_" d="M644.25,263.11l0.68,120.55c0.03,6.11-2.08,11.77-5.55,14.85l-60.99,54.05
					c-9.71,8.6-25.68,8.7-35.48,0.21l-61.59-53.34c-3.51-3.04-5.69-8.67-5.72-14.78l-0.68-121.31c-0.05-9.47,4.97-17.17,11.22-17.17
					l146.8-0.09C639.13,246.06,644.2,253.68,644.25,263.11z"/>
			</defs>
			<clipPath id="SVGID_3_">
				<use xlink:href="#SVGID_1_"  style="overflow:visible;"/>
			</clipPath>
			<clipPath id="SVGID_4_" class="st16">
				<use xlink:href="#SVGID_2_"  style="overflow:visible;"/>
			</clipPath>
			<rect x="328.69" y="59.36" class="st17" width="665.26" height="722.12"/>
			<g class="st18">
				<polygon class="st19" points="115.2,851.77 264.24,905.3 260.98,905.3 410.96,851.4 412.6,850.81 414.24,851.4 564.25,905.27 
					560.94,905.27 710.93,851.37 712.58,850.77 714.25,851.37 864.25,905.24 860.9,905.24 1010.89,851.34 1012.57,850.73 
					1014.25,851.34 1164.26,905.21 1160.87,905.21 1310.84,851.31 1314.25,856.2 1164.26,910.07 1162.56,910.68 1160.87,910.07 
					1010.89,856.17 1014.25,856.17 864.25,910.05 862.58,910.65 860.9,910.05 710.93,856.15 714.25,856.15 564.25,910.02 
					562.59,910.61 560.94,910.02 410.96,856.12 414.24,856.12 264.24,909.99 262.61,910.57 260.98,909.99 111.95,856.43 				"/>
				<polygon class="st19" points="115.2,833.88 264.24,887.41 260.98,887.41 410.96,833.51 412.6,832.91 414.24,833.51 
					564.25,887.38 560.94,887.38 710.93,833.48 712.58,832.88 714.25,833.48 864.25,887.35 860.9,887.35 1010.89,833.45 
					1012.57,832.84 1014.25,833.45 1164.26,887.32 1160.87,887.32 1310.85,833.43 1314.24,838.3 1164.26,892.18 1162.56,892.79 
					1160.87,892.18 1010.89,838.28 1014.25,838.28 864.25,892.16 862.58,892.76 860.9,892.16 710.93,838.26 714.25,838.26 
					564.25,892.13 562.59,892.72 560.94,892.13 410.96,838.23 414.24,838.23 264.24,892.1 262.61,892.68 260.98,892.1 
					111.95,838.54 				"/>
				<polygon class="st19" points="115.2,815.99 264.24,869.52 260.98,869.52 410.96,815.61 412.6,815.02 414.24,815.61 
					564.25,869.49 560.94,869.49 710.93,815.59 712.58,814.99 714.25,815.59 864.25,869.46 860.9,869.46 1010.89,815.56 
					1012.57,814.95 1014.25,815.56 1164.26,869.43 1160.87,869.43 1310.85,815.54 1314.24,820.41 1164.26,874.29 1162.56,874.9 
					1160.87,874.29 1010.89,820.39 1014.25,820.39 864.25,874.27 862.58,874.87 860.9,874.27 710.93,820.36 714.25,820.36 
					564.25,874.24 562.59,874.83 560.94,874.24 410.96,820.34 414.24,820.34 264.24,874.21 262.61,874.79 260.98,874.21 
					111.95,820.65 				"/>
				<polygon class="st19" points="115.2,798.1 264.24,851.63 260.98,851.63 410.96,797.72 412.6,797.13 414.24,797.72 
					564.25,851.59 560.94,851.59 710.93,797.69 712.58,797.1 714.25,797.69 864.25,851.57 860.9,851.57 1010.89,797.67 
					1012.57,797.06 1014.25,797.67 1164.26,851.54 1160.87,851.54 1310.84,797.64 1314.25,802.53 1164.26,856.4 1162.56,857.01 
					1160.87,856.4 1010.89,802.5 1014.25,802.5 864.25,856.38 862.58,856.98 860.9,856.38 710.93,802.48 714.25,802.48 
					564.25,856.35 562.59,856.94 560.94,856.35 410.96,802.45 414.24,802.45 264.24,856.32 262.61,856.9 260.98,856.32 
					111.95,802.76 				"/>
				<polygon class="st19" points="115.2,780.21 264.24,833.73 260.98,833.73 410.96,779.83 412.6,779.24 414.24,779.83 
					564.25,833.7 560.94,833.7 710.93,779.8 712.58,779.21 714.25,779.8 864.25,833.67 860.9,833.67 1010.89,779.77 1012.57,779.17 
					1014.25,779.77 1164.26,833.65 1160.87,833.65 1310.84,779.75 1314.25,784.64 1164.26,838.52 1162.56,839.12 1160.87,838.52 
					1010.89,784.61 1014.25,784.61 864.25,838.49 862.58,839.09 860.9,838.49 710.93,784.59 714.25,784.59 564.25,838.46 
					562.59,839.05 560.94,838.46 410.96,784.56 414.24,784.56 264.24,838.43 262.61,839.01 260.98,838.43 111.95,784.87 				"/>
				<polygon class="st19" points="115.2,762.32 264.24,815.84 260.98,815.84 410.96,761.94 412.6,761.35 414.24,761.94 
					564.25,815.81 560.94,815.81 710.93,761.91 712.58,761.31 714.25,761.91 864.25,815.79 860.9,815.79 1010.88,761.88 
					1012.57,761.28 1014.26,761.88 1164.26,815.75 1160.87,815.75 1310.84,761.86 1314.25,766.75 1164.26,820.63 1162.56,821.23 
					1160.87,820.63 1010.89,766.72 1014.25,766.72 864.25,820.6 862.58,821.2 860.9,820.6 710.93,766.7 714.25,766.7 564.25,820.57 
					562.59,821.16 560.94,820.57 410.96,766.67 414.24,766.67 264.24,820.53 262.61,821.12 260.98,820.53 111.95,766.98 				"/>
				<polygon class="st19" points="115.2,744.43 264.24,797.95 260.98,797.95 410.96,744.05 412.6,743.46 414.24,744.05 
					564.25,797.92 560.94,797.92 710.92,744.02 712.58,743.43 714.25,744.02 864.25,797.89 860.9,797.89 1010.88,743.99 
					1012.57,743.39 1014.26,743.99 1164.26,797.86 1160.87,797.86 1310.84,743.97 1314.25,748.86 1164.26,802.73 1162.56,803.34 
					1160.87,802.73 1010.89,748.83 1014.25,748.83 864.25,802.71 862.58,803.31 860.9,802.71 710.93,748.8 714.25,748.8 
					564.25,802.68 562.59,803.27 560.94,802.68 410.96,748.78 414.24,748.78 264.24,802.64 262.61,803.23 260.98,802.64 
					111.95,749.09 				"/>
				<polygon class="st19" points="115.2,726.54 264.24,780.06 260.98,780.06 410.96,726.16 412.6,725.57 414.24,726.16 
					564.25,780.03 560.94,780.03 710.92,726.13 712.58,725.54 714.25,726.13 864.25,780 860.9,780 1010.88,726.1 1012.57,725.5 
					1014.26,726.1 1164.26,779.97 1160.87,779.97 1310.84,726.08 1314.25,730.97 1164.26,784.85 1162.56,785.46 1160.87,784.85 
					1010.88,730.95 1014.26,730.95 864.25,784.82 862.58,785.42 860.9,784.82 710.93,730.92 714.25,730.92 564.25,784.79 
					562.59,785.38 560.94,784.79 410.96,730.89 414.24,730.89 264.24,784.76 262.61,785.34 260.98,784.76 111.95,731.2 				"/>
				<polygon class="st19" points="115.2,708.65 264.24,762.17 260.98,762.17 410.96,708.27 412.6,707.68 414.25,708.27 
					564.25,762.14 560.94,762.14 710.92,708.24 712.58,707.64 714.25,708.24 864.26,762.11 860.9,762.11 1010.88,708.21 
					1012.57,707.6 1014.26,708.21 1164.26,762.08 1160.86,762.08 1310.83,708.18 1314.26,713.09 1164.26,766.96 1162.56,767.57 
					1160.86,766.96 1010.88,713.06 1014.26,713.06 864.26,766.93 862.58,767.53 860.9,766.93 710.92,713.03 714.25,713.03 
					564.25,766.9 562.59,767.49 560.94,766.9 410.96,713 414.24,713 264.24,766.87 262.61,767.45 260.98,766.87 111.95,713.31 				
					"/>
				<polygon class="st19" points="115.21,690.75 264.24,744.28 260.98,744.28 410.96,690.38 412.6,689.79 414.24,690.38 
					564.25,744.25 560.94,744.25 710.92,690.35 712.58,689.75 714.25,690.35 864.25,744.22 860.9,744.22 1010.88,690.32 
					1012.57,689.71 1014.26,690.32 1164.26,744.19 1160.86,744.19 1310.84,690.3 1314.25,695.19 1164.26,749.07 1162.56,749.68 
					1160.86,749.07 1010.88,695.17 1014.26,695.17 864.26,749.04 862.58,749.64 860.9,749.04 710.92,695.14 714.25,695.14 
					564.25,749.01 562.59,749.6 560.94,749.01 410.96,695.11 414.24,695.11 264.24,748.97 262.61,749.56 260.98,748.97 
					111.95,695.43 				"/>
				<polygon class="st19" points="115.21,672.86 264.24,726.4 260.99,726.4 410.96,672.5 412.6,671.91 414.24,672.5 564.24,726.37 
					560.95,726.37 710.93,672.46 712.58,671.87 714.25,672.46 864.25,726.33 860.9,726.33 1010.88,672.43 1012.57,671.82 
					1014.26,672.43 1164.26,726.3 1160.86,726.3 1310.84,672.41 1314.25,677.3 1164.26,731.18 1162.56,731.79 1160.86,731.18 
					1010.88,677.28 1014.26,677.28 864.25,731.15 862.58,731.75 860.9,731.15 710.93,677.24 714.25,677.24 564.24,731.11 
					562.59,731.71 560.95,731.11 410.97,677.21 414.24,677.21 264.24,731.08 262.61,731.66 260.98,731.08 111.95,677.54 				"/>
				<polygon class="st19" points="115.21,654.97 264.25,708.49 260.98,708.49 410.96,654.59 412.6,654 414.25,654.59 564.26,708.46 
					560.94,708.46 710.92,654.56 712.58,653.96 714.26,654.56 864.26,708.43 860.89,708.43 1010.88,654.53 1012.57,653.93 
					1014.26,654.53 1164.26,708.4 1160.86,708.4 1310.83,654.51 1314.26,659.42 1164.26,713.29 1162.56,713.9 1160.86,713.29 
					1010.88,659.39 1014.26,659.39 864.26,713.27 862.58,713.87 860.89,713.27 710.92,659.36 714.26,659.36 564.26,713.24 
					562.59,713.83 560.93,713.24 410.96,659.33 414.25,659.33 264.25,713.2 262.61,713.79 260.97,713.2 111.95,659.65 				"/>
				<polygon class="st19" points="115.21,637.08 264.25,690.6 260.98,690.6 410.96,636.7 412.6,636.11 414.25,636.7 564.26,690.57 
					560.94,690.57 710.92,636.67 712.58,636.07 714.26,636.67 864.26,690.54 860.89,690.54 1010.88,636.64 1012.57,636.03 
					1014.26,636.64 1164.26,690.51 1160.86,690.51 1310.83,636.62 1314.26,641.53 1164.26,695.41 1162.56,696.02 1160.86,695.41 
					1010.88,641.51 1014.26,641.51 864.26,695.37 862.58,695.98 860.89,695.37 710.92,641.47 714.26,641.47 564.26,695.35 
					562.59,695.94 560.93,695.35 410.96,641.44 414.25,641.44 264.25,695.31 262.61,695.9 260.97,695.32 111.95,641.76 				"/>
				<polygon class="st19" points="115.22,619.18 264.25,672.71 260.98,672.71 410.96,618.81 412.6,618.22 414.25,618.81 
					564.26,672.68 560.94,672.68 710.92,618.78 712.58,618.18 714.26,618.78 864.26,672.65 860.89,672.65 1010.88,618.75 
					1012.57,618.14 1014.26,618.75 1164.26,672.62 1160.86,672.62 1310.83,618.73 1314.26,623.64 1164.26,677.52 1162.56,678.13 
					1160.86,677.52 1010.88,623.61 1014.26,623.61 864.26,677.48 862.58,678.09 860.89,677.48 710.92,623.58 714.26,623.58 
					564.26,677.45 562.59,678.05 560.93,677.45 410.96,623.55 414.25,623.55 264.25,677.42 262.61,678.01 260.98,677.42 
					111.94,623.88 				"/>
				<polygon class="st19" points="115.22,601.29 264.24,654.83 260.98,654.83 410.96,600.93 412.6,600.33 414.25,600.93 
					564.26,654.8 560.94,654.8 710.92,600.89 712.58,600.3 714.26,600.89 864.26,654.76 860.9,654.76 1010.88,600.86 
					1012.57,600.25 1014.26,600.86 1164.26,654.73 1160.86,654.73 1310.83,600.84 1314.26,605.75 1164.26,659.63 1162.56,660.24 
					1160.86,659.63 1010.88,605.72 1014.26,605.72 864.26,659.59 862.58,660.2 860.89,659.59 710.92,605.69 714.26,605.69 
					564.26,659.56 562.59,660.16 560.94,659.56 410.96,605.66 414.25,605.66 264.24,659.53 262.61,660.12 260.98,659.53 
					111.94,605.99 				"/>
				<polygon class="st19" points="115.22,583.4 264.26,636.92 260.97,636.92 410.94,583.03 412.6,582.43 414.26,583.03 
					564.26,636.9 560.93,636.9 710.91,583 712.58,582.39 714.26,583 864.27,636.87 860.89,636.87 1010.87,582.97 1012.57,582.36 
					1014.27,582.97 1164.26,636.84 1160.86,636.84 1310.83,582.95 1314.26,587.86 1164.26,641.74 1162.56,642.35 1160.86,641.74 
					1010.87,587.84 1014.27,587.84 864.27,641.71 862.58,642.32 860.89,641.71 710.91,587.81 714.26,587.81 564.26,641.68 
					562.59,642.28 560.93,641.68 410.95,587.78 414.26,587.78 264.26,641.65 262.61,642.25 260.97,641.65 111.94,588.1 				"/>
				<polygon class="st19" points="115.22,565.51 264.26,619.03 260.97,619.03 410.94,565.13 412.6,564.54 414.26,565.13 564.26,619 
					560.93,619 710.91,565.1 712.58,564.5 714.27,565.1 864.27,618.97 860.89,618.97 1010.87,565.07 1012.57,564.46 1014.27,565.07 
					1164.27,618.95 1160.85,618.95 1310.83,565.05 1314.26,569.98 1164.27,623.85 1162.56,624.47 1160.85,623.85 1010.87,569.95 
					1014.27,569.95 864.27,623.82 862.58,624.43 860.89,623.82 710.91,569.92 714.27,569.92 564.26,623.79 562.59,624.39 
					560.93,623.79 410.94,569.89 414.26,569.89 264.26,623.76 262.61,624.36 260.97,623.76 111.94,570.21 				"/>
				<polygon class="st19" points="115.22,547.61 264.26,601.14 260.97,601.14 410.94,547.24 412.6,546.65 414.26,547.24 
					564.26,601.12 560.93,601.12 710.91,547.21 712.58,546.61 714.27,547.21 864.27,601.08 860.89,601.08 1010.87,547.18 
					1012.57,546.57 1014.27,547.18 1164.27,601.05 1160.85,601.05 1310.83,547.16 1314.26,552.09 1164.27,605.96 1162.56,606.58 
					1160.85,605.96 1010.87,552.06 1014.27,552.06 864.27,605.93 862.58,606.54 860.89,605.93 710.91,552.03 714.26,552.03 
					564.26,605.9 562.59,606.5 560.93,605.9 410.95,552 414.26,552 264.26,605.87 262.61,606.46 260.97,605.87 111.93,552.33 				
					"/>
				<polygon class="st19" points="115.22,529.72 264.25,583.26 260.97,583.26 410.95,529.36 412.6,528.76 414.26,529.36 
					564.26,583.23 560.93,583.23 710.91,529.33 712.58,528.72 714.26,529.33 864.27,583.2 860.89,583.2 1010.87,529.29 
					1012.57,528.68 1014.27,529.29 1164.27,583.16 1160.85,583.16 1310.83,529.27 1314.26,534.2 1164.27,588.07 1162.56,588.69 
					1160.85,588.07 1010.87,534.17 1014.27,534.17 864.27,588.04 862.58,588.65 860.89,588.04 710.91,534.14 714.26,534.14 
					564.26,588.01 562.59,588.61 560.93,588.01 410.95,534.11 414.26,534.11 264.25,587.98 262.61,588.57 260.97,587.98 
					111.93,534.44 				"/>
				<polygon class="st19" points="115.23,511.82 264.26,565.36 260.96,565.36 410.94,511.46 412.6,510.86 414.27,511.46 
					564.27,565.33 560.92,565.33 710.9,511.43 712.58,510.82 714.27,511.43 864.27,565.3 860.89,565.3 1010.87,511.4 
					1012.57,510.79 1014.27,511.4 1164.27,565.27 1160.85,565.27 1310.83,511.37 1314.26,516.31 1164.27,570.18 1162.56,570.8 
					1160.85,570.18 1010.87,516.29 1014.27,516.29 864.27,570.16 862.58,570.77 860.89,570.16 710.91,516.26 714.27,516.26 
					564.27,570.13 562.59,570.73 560.92,570.13 410.94,516.23 414.27,516.23 264.26,570.1 262.61,570.69 260.96,570.1 
					111.93,516.56 				"/>
				<polygon class="st19" points="115.22,493.94 264.26,547.46 260.96,547.46 410.94,493.56 412.6,492.96 414.27,493.56 
					564.27,547.43 560.92,547.43 710.9,493.53 712.58,492.93 714.27,493.53 864.27,547.41 860.89,547.41 1010.87,493.51 
					1012.57,492.9 1014.27,493.51 1164.27,547.38 1160.85,547.38 1310.83,493.48 1314.26,498.42 1164.27,552.3 1162.56,552.91 
					1160.85,552.3 1010.87,498.4 1014.27,498.4 864.27,552.27 862.58,552.88 860.89,552.27 710.9,498.37 714.27,498.37 
					564.27,552.24 562.59,552.84 560.92,552.24 410.94,498.34 414.27,498.34 264.26,552.21 262.61,552.81 260.96,552.21 
					111.93,498.66 				"/>
				<polygon class="st19" points="115.23,476.03 264.26,529.58 260.96,529.58 410.94,475.68 412.6,475.08 414.27,475.68 
					564.27,529.55 560.92,529.55 710.9,475.65 712.58,475.04 714.27,475.65 864.27,529.52 860.89,529.52 1010.87,475.62 
					1012.57,475.01 1014.27,475.62 1164.27,529.49 1160.85,529.49 1310.83,475.6 1314.26,480.53 1164.27,534.41 1162.56,535.02 
					1160.85,534.41 1010.87,480.51 1014.27,480.51 864.27,534.38 862.58,534.98 860.89,534.38 710.9,480.48 714.27,480.48 
					564.27,534.35 562.59,534.95 560.92,534.35 410.94,480.45 414.27,480.45 264.26,534.32 262.61,534.91 260.96,534.32 
					111.93,480.78 				"/>
				<polygon class="st19" points="115.24,458.13 264.26,511.69 260.97,511.69 410.94,457.79 412.6,457.19 414.26,457.79 
					564.26,511.66 560.93,511.66 710.91,457.76 712.58,457.15 714.27,457.76 864.27,511.63 860.89,511.63 1010.87,457.73 
					1012.57,457.12 1014.27,457.73 1164.27,511.6 1160.85,511.6 1310.83,457.7 1314.26,462.64 1164.27,516.52 1162.56,517.13 
					1160.85,516.52 1010.87,462.61 1014.27,462.61 864.27,516.49 862.58,517.09 860.89,516.49 710.91,462.58 714.27,462.58 
					564.27,516.45 562.59,517.05 560.92,516.45 410.94,462.55 414.26,462.55 264.26,516.42 262.61,517.02 260.97,516.42 
					111.92,462.9 				"/>
				<polygon class="st20" points="115.24,440.25 264.27,493.79 260.95,493.79 410.94,439.89 412.6,439.29 414.27,439.89 
					564.27,493.76 560.92,493.76 710.9,439.86 712.58,439.26 714.27,439.86 864.27,493.73 860.88,493.73 1010.87,439.83 
					1012.57,439.22 1014.27,439.83 1164.27,493.71 1160.85,493.71 1310.83,439.81 1314.26,444.75 1164.28,498.63 1162.56,499.25 
					1160.85,498.63 1010.87,444.73 1014.27,444.73 864.27,498.6 862.58,499.21 860.88,498.6 710.9,444.7 714.27,444.7 
					564.27,498.58 562.59,499.18 560.92,498.58 410.94,444.68 414.27,444.68 264.27,498.55 262.61,499.14 260.95,498.55 
					111.92,445.01 				"/>
				<polygon class="st19" points="115.24,422.35 264.26,475.9 260.96,475.9 410.94,422 412.6,421.4 414.27,422 564.27,475.87 
					560.92,475.87 710.9,421.97 712.58,421.37 714.27,421.97 864.27,475.84 860.88,475.84 1010.87,421.94 1012.57,421.33 
					1014.27,421.94 1164.28,475.82 1160.85,475.82 1310.83,421.93 1314.26,426.86 1164.28,480.74 1162.56,481.36 1160.85,480.74 
					1010.87,426.84 1014.27,426.84 864.27,480.71 862.58,481.32 860.88,480.71 710.9,426.81 714.27,426.81 564.27,480.68 
					562.59,481.28 560.92,480.68 410.94,426.78 414.27,426.78 264.26,480.65 262.61,481.25 260.96,480.65 111.92,427.12 				"/>
				<polygon class="st19" points="115.24,404.46 264.28,457.99 260.94,457.99 410.93,404.09 412.6,403.49 414.28,404.09 
					564.28,457.97 560.91,457.97 710.9,404.07 712.58,403.46 714.28,404.07 864.28,457.94 860.88,457.94 1010.86,404.05 
					1012.57,403.44 1014.28,404.05 1164.28,457.92 1160.85,457.92 1310.83,404.04 1314.26,408.97 1164.28,462.85 1162.56,463.47 
					1160.85,462.85 1010.86,408.96 1014.28,408.96 864.28,462.83 862.58,463.44 860.88,462.83 710.9,408.93 714.28,408.93 
					564.28,462.81 562.59,463.41 560.91,462.81 410.93,408.91 414.28,408.91 264.28,462.78 262.61,463.38 260.94,462.78 
					111.92,409.23 				"/>
				<polygon class="st19" points="115.24,386.56 264.28,440.1 260.94,440.1 410.93,386.21 412.6,385.6 414.28,386.21 564.28,440.08 
					560.91,440.08 710.9,386.18 712.58,385.57 714.28,386.18 864.28,440.06 860.88,440.06 1010.86,386.16 1012.57,385.55 
					1014.28,386.16 1164.28,440.03 1160.85,440.03 1310.83,386.14 1314.26,391.08 1164.28,444.96 1162.56,445.58 1160.85,444.96 
					1010.86,391.06 1014.28,391.06 864.28,444.94 862.58,445.55 860.88,444.94 710.9,391.04 714.28,391.04 564.28,444.91 
					562.59,445.52 560.91,444.91 410.93,391.02 414.28,391.02 264.28,444.89 262.61,445.49 260.94,444.89 111.91,391.35 				"/>
				<polygon class="st19" points="115.24,368.67 264.27,422.22 260.95,422.22 410.93,368.32 412.6,367.72 414.28,368.32 
					564.27,422.19 560.92,422.19 710.9,368.29 712.58,367.69 714.28,368.29 864.28,422.17 860.88,422.17 1010.86,368.27 
					1012.57,367.65 1014.28,368.27 1164.28,422.14 1160.85,422.14 1310.83,368.25 1314.26,373.19 1164.28,427.07 1162.56,427.69 
					1160.85,427.07 1010.86,373.17 1014.28,373.17 864.28,427.05 862.58,427.66 860.88,427.05 710.9,373.15 714.28,373.15 
					564.28,427.02 562.59,427.62 560.91,427.02 410.93,373.12 414.28,373.12 264.27,426.99 262.61,427.59 260.95,426.99 
					111.91,373.46 				"/>
				<polygon class="st19" points="115.25,350.77 264.29,404.31 260.94,404.31 410.92,350.42 412.6,349.81 414.29,350.42 
					564.28,404.29 560.91,404.29 710.89,350.39 712.58,349.78 714.28,350.39 864.28,404.27 860.88,404.27 1010.86,350.37 
					1012.57,349.76 1014.28,350.37 1164.28,404.25 1160.85,404.25 1310.83,350.36 1314.26,355.3 1164.28,409.18 1162.56,409.8 
					1160.84,409.18 1010.86,355.29 1014.28,355.29 864.28,409.16 862.58,409.78 860.88,409.16 710.89,355.27 714.28,355.27 
					564.28,409.14 562.59,409.75 560.91,409.14 410.92,355.25 414.28,355.25 264.29,409.12 262.61,409.72 260.94,409.12 
					111.9,355.58 				"/>
				<polygon class="st19" points="115.25,332.88 264.28,386.42 260.94,386.42 410.92,332.53 412.6,331.92 414.28,332.53 
					564.28,386.4 560.91,386.4 710.89,332.5 712.58,331.9 714.28,332.5 864.28,386.38 860.88,386.38 1010.86,332.48 1012.57,331.87 
					1014.28,332.48 1164.28,386.36 1160.85,386.36 1310.83,332.47 1314.26,337.41 1164.28,391.29 1162.56,391.91 1160.84,391.29 
					1010.86,337.4 1014.28,337.4 864.28,391.27 862.58,391.89 860.88,391.27 710.89,337.38 714.28,337.38 564.28,391.25 
					562.59,391.86 560.91,391.25 410.92,337.35 414.28,337.35 264.28,391.23 262.61,391.83 260.94,391.23 111.9,337.69 				"/>
				<polygon class="st19" points="115.25,314.99 264.28,368.54 260.94,368.54 410.92,314.64 412.6,314.04 414.28,314.64 
					564.28,368.51 560.91,368.51 710.89,314.61 712.58,314.01 714.28,314.61 864.28,368.49 860.88,368.49 1010.85,314.59 
					1012.57,313.97 1014.29,314.59 1164.28,368.47 1160.85,368.47 1310.83,314.58 1314.26,319.52 1164.28,373.4 1162.56,374.02 
					1160.84,373.4 1010.85,319.51 1014.29,319.51 864.28,373.38 862.58,374 860.88,373.38 710.89,319.49 714.28,319.49 
					564.28,373.36 562.59,373.96 560.91,373.36 410.93,319.46 414.28,319.46 264.28,373.33 262.61,373.93 260.94,373.33 
					111.9,319.8 				"/>
				<polygon class="st19" points="115.26,297.09 264.29,350.63 260.93,350.63 410.92,296.74 412.6,296.13 414.29,296.74 
					564.29,350.61 560.9,350.61 710.88,296.72 712.58,296.1 714.29,296.72 864.29,350.59 860.87,350.59 1010.85,296.69 
					1012.57,296.08 1014.29,296.69 1164.28,350.58 1160.85,350.58 1310.83,296.69 1314.26,301.63 1164.28,355.52 1162.56,356.13 
					1160.84,355.52 1010.85,301.63 1014.29,301.63 864.29,355.5 862.58,356.12 860.87,355.5 710.88,301.61 714.29,301.61 
					564.29,355.48 562.59,356.09 560.9,355.48 410.92,301.58 414.29,301.58 264.29,355.46 262.61,356.06 260.93,355.46 
					111.9,301.92 				"/>
				<polygon class="st19" points="115.26,279.2 264.29,332.74 260.93,332.74 410.92,278.85 412.6,278.24 414.29,278.85 
					564.29,332.72 560.9,332.72 710.88,278.82 712.58,278.21 714.29,278.82 864.29,332.7 860.87,332.7 1010.85,278.8 
					1012.57,278.19 1014.29,278.8 1164.28,332.69 1160.85,332.69 1310.83,278.8 1314.26,283.74 1164.28,337.62 1162.56,338.24 
					1160.84,337.62 1010.85,283.74 1014.29,283.74 864.29,337.61 862.58,338.23 860.87,337.61 710.88,283.72 714.29,283.72 
					564.29,337.59 562.59,338.2 560.9,337.59 410.92,283.69 414.29,283.69 264.29,337.57 262.61,338.17 260.93,337.57 111.9,284.03 
									"/>
				<polygon class="st19" points="115.26,261.31 264.29,314.86 260.93,314.86 410.92,260.96 412.6,260.35 414.29,260.96 
					564.29,314.83 560.9,314.83 710.88,260.93 712.58,260.32 714.29,260.93 864.29,314.81 860.87,314.81 1010.85,260.91 
					1012.57,260.3 1014.29,260.91 1164.28,314.8 1160.85,314.8 1310.83,260.91 1314.26,265.85 1164.28,319.73 1162.56,320.35 
					1160.84,319.73 1010.85,265.85 1014.29,265.85 864.29,319.72 862.58,320.34 860.87,319.72 710.88,265.83 714.29,265.83 
					564.29,319.7 562.59,320.31 560.9,319.7 410.92,265.8 414.29,265.8 264.29,319.68 262.61,320.28 260.93,319.68 111.9,266.14 
									"/>
				<polygon class="st19" points="115.26,243.41 264.3,296.95 260.92,296.95 410.91,243.06 412.6,242.45 414.3,243.06 
					564.29,296.93 560.9,296.93 710.88,243.04 712.58,242.43 714.29,243.04 864.29,296.91 860.87,296.91 1010.85,243.02 
					1012.57,242.4 1014.29,243.02 1164.28,296.91 1160.85,296.91 1310.83,243.02 1314.26,247.96 1164.28,301.84 1162.56,302.46 
					1160.84,301.84 1010.85,247.96 1014.29,247.96 864.29,301.84 862.58,302.45 860.86,301.84 710.88,247.94 714.29,247.94 
					564.29,301.82 562.59,302.43 560.9,301.82 410.91,247.92 414.3,247.92 264.3,301.8 262.61,302.4 260.92,301.8 111.89,248.26 
									"/>
				<polygon class="st19" points="115.26,225.52 264.3,279.06 260.93,279.06 410.91,225.17 412.6,224.56 414.3,225.17 
					564.29,279.04 560.9,279.04 710.88,225.15 712.58,224.53 714.29,225.15 864.29,279.02 860.86,279.02 1010.85,225.13 
					1012.57,224.51 1014.29,225.13 1164.28,279.02 1160.85,279.02 1310.83,225.13 1314.26,230.07 1164.28,283.95 1162.56,284.57 
					1160.84,283.95 1010.85,230.07 1014.29,230.07 864.29,283.95 862.58,284.56 860.86,283.95 710.88,230.05 714.29,230.05 
					564.29,283.93 562.59,284.54 560.9,283.93 410.91,230.03 414.3,230.03 264.3,283.9 262.61,284.51 260.92,283.9 111.89,230.37 
									"/>
				<polygon class="st19" points="115.26,207.63 264.3,261.18 260.93,261.18 410.91,207.28 412.6,206.67 414.3,207.28 
					564.29,261.15 560.9,261.15 710.88,207.26 712.58,206.64 714.29,207.26 864.29,261.13 860.86,261.13 1010.85,207.24 
					1012.57,206.62 1014.29,207.24 1164.28,261.13 1160.85,261.13 1310.83,207.24 1314.26,212.18 1164.28,266.06 1162.56,266.68 
					1160.84,266.06 1010.85,212.18 1014.29,212.18 864.29,266.06 862.58,266.67 860.86,266.06 710.88,212.16 714.29,212.16 
					564.29,266.03 562.59,266.64 560.9,266.03 410.91,212.14 414.3,212.14 264.3,266.01 262.61,266.62 260.93,266.01 111.89,212.48 
									"/>
				<polygon class="st19" points="115.26,189.74 264.31,243.27 260.92,243.27 410.9,189.38 412.6,188.77 414.3,189.38 564.3,243.26 
					560.89,243.26 710.88,189.36 712.58,188.75 714.3,189.36 864.29,243.24 860.86,243.24 1010.85,189.35 1012.57,188.73 
					1014.29,189.35 1164.28,243.24 1160.85,243.24 1310.83,189.35 1314.26,194.29 1164.28,248.17 1162.56,248.79 1160.84,248.17 
					1010.85,194.29 1014.29,194.29 864.29,248.17 862.58,248.79 860.86,248.17 710.88,194.28 714.3,194.28 564.3,248.15 
					562.59,248.77 560.89,248.15 410.9,194.26 414.3,194.26 264.31,248.14 262.61,248.75 260.92,248.14 111.89,194.59 				"/>
				<polygon class="st19" points="115.27,171.84 264.3,225.38 260.92,225.38 410.9,171.49 412.6,170.88 414.3,171.49 564.3,225.37 
					560.89,225.37 710.88,171.47 712.58,170.86 714.3,171.47 864.29,225.35 860.86,225.35 1010.85,171.46 1012.57,170.84 
					1014.29,171.46 1164.28,225.35 1160.85,225.35 1310.83,171.46 1314.26,176.4 1164.28,230.28 1162.56,230.9 1160.84,230.28 
					1010.85,176.4 1014.29,176.4 864.29,230.28 862.58,230.9 860.86,230.28 710.88,176.39 714.3,176.39 564.3,230.26 562.59,230.88 
					560.89,230.26 410.9,176.37 414.3,176.37 264.3,230.25 262.61,230.85 260.92,230.25 111.88,176.71 				"/>
				<polygon class="st19" points="115.27,153.95 264.3,207.5 260.92,207.5 410.9,153.6 412.6,152.99 414.3,153.6 564.3,207.48 
					560.89,207.48 710.88,153.58 712.58,152.96 714.3,153.58 864.29,207.46 860.86,207.46 1010.85,153.57 1012.57,152.95 
					1014.29,153.57 1164.28,207.46 1160.85,207.46 1310.83,153.57 1314.26,158.51 1164.28,212.39 1162.56,213.01 1160.84,212.39 
					1010.85,158.51 1014.29,158.51 864.3,212.39 862.58,213.01 860.86,212.39 710.88,158.5 714.3,158.5 564.3,212.37 562.59,212.99 
					560.89,212.37 410.9,158.48 414.3,158.48 264.3,212.35 262.61,212.96 260.92,212.35 111.88,158.82 				"/>
				<polygon class="st19" points="115.27,136.06 264.31,189.59 260.91,189.59 410.9,135.71 412.6,135.09 414.31,135.71 
					564.3,189.59 560.89,189.59 710.88,135.7 712.58,135.08 714.29,135.7 864.29,189.58 860.87,189.58 1010.86,135.69 
					1012.57,135.07 1014.28,135.69 1164.28,189.57 1160.85,189.57 1310.83,135.68 1314.26,140.62 1164.28,194.5 1162.56,195.11 
					1160.85,194.5 1010.86,140.61 1014.28,140.61 864.29,194.49 862.58,195.11 860.87,194.49 710.88,140.6 714.29,140.6 
					564.3,194.48 562.59,195.1 560.89,194.48 410.9,140.59 414.3,140.59 264.31,194.47 262.61,195.08 260.91,194.47 111.88,140.93 
									"/>
				<polygon class="st19" points="115.28,118.16 264.32,171.7 260.91,171.7 410.9,117.81 412.6,117.19 414.31,117.81 564.3,171.69 
					560.89,171.69 710.88,117.8 712.58,117.19 714.3,117.8 864.29,171.69 860.87,171.69 1010.85,117.8 1012.57,117.18 
					1014.29,117.8 1164.28,171.68 1160.85,171.68 1310.83,117.79 1314.26,122.73 1164.28,176.61 1162.56,177.23 1160.85,176.61 
					1010.85,122.72 1014.29,122.72 864.29,176.6 862.58,177.22 860.87,176.6 710.88,122.72 714.3,122.72 564.3,176.6 562.59,177.21 
					560.89,176.6 410.9,122.71 414.31,122.71 264.32,176.59 262.61,177.21 260.91,176.59 111.87,123.05 				"/>
				<polygon class="st19" points="115.29,100.26 264.32,153.8 260.9,153.8 410.89,99.91 412.6,99.29 414.31,99.91 564.31,153.79 
					560.88,153.79 710.87,99.91 712.58,99.29 714.3,99.91 864.29,153.79 860.86,153.79 1010.85,99.9 1012.57,99.29 1014.29,99.9 
					1164.28,153.79 1160.85,153.79 1310.83,99.9 1314.26,104.84 1164.28,158.72 1162.56,159.34 1160.85,158.72 1010.85,104.83 
					1014.29,104.83 864.29,158.72 862.58,159.33 860.86,158.72 710.87,104.83 714.3,104.83 564.31,158.71 562.59,159.33 
					560.88,158.71 410.89,104.83 414.31,104.83 264.32,158.71 262.61,159.33 260.9,158.71 111.86,105.17 				"/>
				<polygon class="st19" points="115.29,82.37 264.32,135.91 260.9,135.91 410.89,82.02 412.6,81.4 414.31,82.02 564.31,135.9 
					560.88,135.9 710.87,82.02 712.58,81.4 714.3,82.02 864.29,135.9 860.86,135.9 1010.85,82.01 1012.57,81.4 1014.29,82.01 
					1164.28,135.9 1160.85,135.9 1310.83,82.01 1314.26,86.95 1164.28,140.83 1162.56,141.45 1160.85,140.83 1010.85,86.94 
					1014.29,86.94 864.29,140.83 862.58,141.44 860.86,140.83 710.87,86.94 714.3,86.94 564.31,140.82 562.59,141.44 560.88,140.82 
					410.89,86.94 414.31,86.94 264.32,140.82 262.61,141.44 260.9,140.82 111.86,87.28 				"/>
			</g>
		</g>
		<g>
			<ellipse class="st21" cx="574.24" cy="338.95" rx="0.98" ry="1.09"/>
			<path id="XMLID_5_" class="st22" d="M557.7,308.67c0.23-0.18,0.48-0.29,0.74-0.34c0.11-0.03,0.22-0.04,0.33-0.04
				c0.5,0,1,0.23,1.37,0.66c3.85,4.48,16.3,19.45,19.29,29.16c1.29,4.15-2.9,6.93-5.49,4.8c-0.43-0.34-0.81-0.84-1.12-1.47
				c-4.01-8.29-11.78-24.03-15.54-29.66C556.62,310.78,556.81,309.37,557.7,308.67z"/>
			<path id="XMLID_4_" class="st23" d="M559.63,307.28c2.31-0.16,2.85-1.99,2.96-3.07c0.02-0.23,0.12-0.45,0.26-0.6
				c0.14-0.15,0.33-0.25,0.53-0.27c0.53-0.05,0.97,0.45,0.91,1.05c-0.23,2.41-2.96,4.51-2.96,4.51s-0.47,1.23-1.49,1.93
				c-3.24,3.56-5.86,9.51-5.86,9.51l1.19,2l0.61,1.02c0.34,0.57,0.37,1.32,0.06,1.93l-8.73,17.65c-0.21,0.42-0.57,0.72-0.99,0.8
				c-0.46,0.1-0.92,0.2-1.37,0.25c-1.53,0.2-2.92,0.1-3.88-0.93C544.16,335.28,557.02,309.44,559.63,307.28z"/>
			<path id="XMLID_3_" class="st24" d="M554.71,322.53l0.9,0.72c0.5,0.4,0.63,1.03,0.31,1.64l-9.08,17.47
				c-0.22,0.41-0.64,0.77-1.17,0.95c-0.57,0.21-1.15,0.41-1.71,0.58L554.71,322.53z"/>
			<path id="XMLID_2_" class="st25" d="M559,308.79c0.05-0.01,0.09-0.01,0.13-0.01c0.02,0,0.05,0,0.07,0
				c0.4,0.04,0.72,0.42,0.72,0.88c0,0.46-0.32,0.84-0.72,0.88c-0.02,0-0.05,0-0.07,0c-0.05,0-0.1,0-0.13-0.01
				c-0.38-0.07-0.67-0.44-0.67-0.88S558.63,308.83,559,308.79z"/>
			<path id="XMLID_1_" class="st26" d="M559.14,308.76c0.02,0,0.05,0,0.07,0v1.78c-0.02,0-0.05,0-0.07,0c-0.05,0-0.1,0-0.13-0.01
				v-1.77C559.05,308.76,559.09,308.75,559.14,308.76z"/>
			<polygon class="st27" points="560.21,306.5 524.51,277.04 522.75,270.57 512.06,288.14 540.33,331.16 			"/>
			<polygon class="st27" points="560.31,306.5 596.01,277.04 597.76,270.57 608.45,288.14 580.18,331.16 			"/>
		</g>
		<path class="st28" d="M643.44,263.95l0.7,119.89c0.04,6.08-2.07,11.71-5.52,14.76l-61.01,54.06c-9.46,8.38-25.02,8.47-34.57,0.19
			l-61.64-53.37c-3.49-3.02-5.66-8.62-5.69-14.7L475,264.14c-0.05-9.42,4.94-17.07,11.15-17.07L632.16,247
			C638.34,247,643.38,254.58,643.44,263.95z"/>
		<g>
			<path class="st29" d="M638.08,271.97l0.63,107.66c0.03,5.46-1.94,10.51-5.16,13.26l-56.67,48.27
				c-9.02,7.68-23.86,7.77-32.97,0.18l-57.23-47.63c-3.26-2.71-5.28-7.74-5.31-13.2l-0.63-108.34c-0.05-8.46,4.62-15.33,10.42-15.33
				l136.4-0.09C633.32,256.75,638.03,263.55,638.08,271.97z"/>
		</g>
		<text transform="matrix(0.5905 0 0 1 531.0112 373.6738)" class="st30 st9 st31">Gio  House</text>
		<text transform="matrix(0.5905 0 0 1 531.7524 374.7021)" class="st32"><tspan x="0" y="0" class="st33 st9 st31">Gio  House</tspan></text>
		<text transform="matrix(1.1506 0 0 1 529.999 386.5073)" class="st34 st14 st35">Bespoke</text>
		<text transform="matrix(1.1506 0 0 1 562.7725 386.5073)" class="st34 st14 st35">| Barber</text>
	</g>
</g>
</svg>
