<?xml version="1.0" encoding="utf-8"?>
<!-- Generator: Adobe Illustrator 23.0.1, SVG Export Plug-In . SVG Version: 6.00 Build 0)  -->
<svg version="1.1" xmlns="http://www.w3.org/2000/svg" xmlns:xlink="http://www.w3.org/1999/xlink" x="0px" y="0px"
	 viewBox="0 0 1040 1095" style="enable-background:new 0 0 1040 1095;" xml:space="preserve">
<style type="text/css">
	.st0{fill-rule:evenodd;clip-rule:evenodd;fill:#29333C;}
	.st1{clip-path:url(#SVGID_3_);}
	.st2{clip-path:url(#SVGID_4_);fill-rule:evenodd;clip-rule:evenodd;fill:#29333C;}
	.st3{clip-path:url(#SVGID_4_);}
	.st4{opacity:0.07;fill:#21282D;}
	.st5{fill:none;}
	.st6{fill-rule:evenodd;clip-rule:evenodd;fill:#A3966F;}
	.st7{fill-rule:evenodd;clip-rule:evenodd;fill:#C6BB8D;}
	.st8{fill-rule:evenodd;clip-rule:evenodd;fill:#A09D90;}
	.st9{fill-rule:evenodd;clip-rule:evenodd;fill:#DFDFDE;}
	.st10{fill-rule:evenodd;clip-rule:evenodd;fill:#AEAFB0;}
	.st11{opacity:0.9;fill:#E6EBEF;}
	.st12{fill-rule:evenodd;clip-rule:evenodd;fill:none;stroke:#EADE86;stroke-width:4;stroke-miterlimit:10;}
	.st13{fill:none;stroke:#EADE86;stroke-width:2;stroke-miterlimit:10;stroke-dasharray:8.0336,15.063;}
	.st14{fill:#71717C;}
	.st15{font-family:'Oswald-Demi-BoldItalic';}
	.st16{font-size:89.8535px;}
	.st17{opacity:0.8;}
	.st18{opacity:0.25;fill:#1D1D23;}
	.st19{fill:#A5A5AF;}
	.st20{font-family:'Oswald-Light';}
	.st21{font-size:34.9441px;}
</style>
<g id="Layer_2">
	<rect class="st0" width="1040" height="1095"/>
</g>
<g id="image">
	<g>
		<g>
			<defs>
				<path id="SVGID_1_" d="M880.13,171.67L883,657.44c0.15,24.63-8.52,47.43-22.72,59.82L609.2,936.3
					c-38.92,33.96-102.94,34.31-142.26,0.78L213.3,720.83c-14.35-12.23-23.28-34.94-23.42-59.57L187,172.43
					c-0.22-38.16,20.35-69.17,45.89-69.18L833.74,103C859.16,102.99,879.91,133.7,880.13,171.67z"/>
			</defs>
			<defs>
				<path id="SVGID_2_" d="M863.91,192.65l2.65,448.28c0.13,22.73-8.14,43.77-21.7,55.21L606.55,897.12
					c-37.94,32-100.33,32.34-138.64,0.76L227.25,699.54c-13.7-11.29-22.21-32.24-22.35-54.97l-2.65-451.1
					c-0.21-35.21,19.44-63.84,43.82-63.85l573.57-0.34C843.9,129.27,863.7,157.61,863.91,192.65z"/>
			</defs>
			<clipPath id="SVGID_3_">
				<use xlink:href="#SVGID_1_"  style="overflow:visible;"/>
			</clipPath>
			<clipPath id="SVGID_4_" class="st1">
				<use xlink:href="#SVGID_2_"  style="overflow:visible;"/>
			</clipPath>
			<rect x="-369.02" y="-565.01" class="st2" width="2599.28" height="2685.32"/>
			<g class="st3">
				<polygon class="st4" points="-1203.18,2381.69 -620.82,2580.73 -633.58,2580.73 -47.57,2380.29 -41.17,2378.1 -34.75,2380.29 
					551.35,2580.62 538.42,2580.62 1124.43,2380.18 1130.91,2377.96 1137.42,2380.18 1723.5,2580.51 1710.41,2580.51 
					2296.42,2380.08 2302.99,2377.83 2309.57,2380.08 2895.66,2580.4 2882.41,2580.4 3468.39,2379.98 3481.7,2398.17 
					2895.66,2598.5 2889.03,2600.76 2882.41,2598.5 2296.42,2398.06 2309.57,2398.06 1723.5,2598.39 1716.95,2600.63 
					1710.41,2598.39 1124.43,2397.95 1137.42,2397.95 551.35,2598.28 544.87,2600.49 538.42,2598.28 -47.57,2397.84 -34.75,2397.84 
					-620.82,2598.17 -627.21,2600.35 -633.58,2598.17 -1215.84,2399.03 				"/>
				<polygon class="st4" points="-1203.18,2315.16 -620.82,2514.2 -633.58,2514.2 -47.57,2313.77 -41.17,2311.57 -34.75,2313.77 
					551.35,2514.09 538.42,2514.09 1124.43,2313.66 1130.91,2311.43 1137.42,2313.66 1723.5,2513.99 1710.41,2513.99 
					2296.42,2313.54 2302.99,2311.3 2309.57,2313.54 2895.66,2513.88 2882.41,2513.88 3468.42,2313.49 3481.67,2331.61 
					2895.66,2531.97 2889.03,2534.24 2882.41,2531.97 2296.42,2331.53 2309.57,2331.53 1723.5,2531.86 1716.95,2534.1 
					1710.41,2531.86 1124.43,2331.43 1137.42,2331.43 551.35,2531.75 544.87,2533.96 538.42,2531.75 -47.57,2331.32 -34.75,2331.32 
					-620.82,2531.65 -627.21,2533.83 -633.58,2531.65 -1215.84,2332.5 				"/>
				<polygon class="st4" points="-1203.18,2248.64 -620.82,2447.68 -633.58,2447.68 -47.57,2247.23 -41.17,2245.04 -34.75,2247.23 
					551.35,2447.56 538.42,2447.56 1124.43,2247.13 1130.91,2244.9 1137.42,2247.13 1723.5,2447.45 1710.41,2447.45 
					2296.42,2247.02 2302.99,2244.77 2309.57,2247.02 2895.66,2447.35 2882.41,2447.35 3468.42,2246.96 3481.67,2265.07 
					2895.66,2465.44 2889.03,2467.71 2882.41,2465.44 2296.42,2265.01 2309.57,2265.01 1723.5,2465.34 1716.95,2467.57 
					1710.41,2465.34 1124.43,2264.9 1137.42,2264.9 551.35,2465.23 544.87,2467.44 538.42,2465.23 -47.57,2264.79 -34.75,2264.79 
					-620.82,2465.12 -627.21,2467.3 -633.58,2465.12 -1215.84,2265.97 				"/>
				<polygon class="st4" points="-1203.18,2182.1 -620.82,2381.15 -633.58,2381.15 -47.57,2180.71 -41.17,2178.51 -34.75,2180.71 
					551.35,2381.03 538.42,2381.03 1124.43,2180.6 1130.91,2178.38 1137.42,2180.6 1723.5,2380.92 1710.41,2380.92 2296.42,2180.49 
					2302.99,2178.24 2309.57,2180.49 2895.66,2380.81 2882.41,2380.81 3468.39,2180.39 3481.7,2198.58 2895.66,2398.92 
					2889.03,2401.18 2882.41,2398.92 2296.42,2198.48 2309.57,2198.48 1723.5,2398.81 1716.95,2401.05 1710.41,2398.81 
					1124.43,2198.37 1137.42,2198.37 551.35,2398.7 544.87,2400.91 538.42,2398.7 -47.57,2198.26 -34.75,2198.26 -620.82,2398.59 
					-627.21,2400.77 -633.58,2398.59 -1215.84,2199.44 				"/>
				<polygon class="st4" points="-1203.18,2115.58 -620.82,2314.62 -633.58,2314.62 -47.57,2114.18 -41.17,2111.99 -34.75,2114.18 
					551.35,2314.51 538.42,2314.51 1124.43,2114.06 1130.91,2111.85 1137.42,2114.06 1723.5,2314.4 1710.41,2314.4 2296.42,2113.95 
					2302.99,2111.71 2309.57,2113.95 2895.66,2314.29 2882.41,2314.29 3468.39,2113.87 3481.7,2132.06 2895.66,2332.39 
					2889.03,2334.66 2882.41,2332.39 2296.42,2131.95 2309.57,2131.95 1723.5,2332.28 1716.95,2334.52 1710.41,2332.28 
					1124.43,2131.85 1137.42,2131.85 551.35,2332.17 544.87,2334.38 538.42,2332.17 -47.57,2131.74 -34.75,2131.74 -620.82,2332.06 
					-627.21,2334.25 -633.58,2332.06 -1215.84,2132.91 				"/>
				<polygon class="st4" points="-1203.18,2049.05 -620.82,2248.09 -633.58,2248.09 -47.57,2047.65 -41.17,2045.45 -34.75,2047.65 
					551.35,2247.97 538.42,2247.97 1124.43,2047.54 1130.91,2045.31 1137.42,2047.54 1723.5,2247.87 1710.41,2247.87 
					2296.4,2047.43 2302.99,2045.18 2309.59,2047.43 2895.66,2247.75 2882.41,2247.75 3468.39,2047.34 3481.7,2065.53 
					2895.66,2265.87 2889.03,2268.13 2882.41,2265.87 2296.42,2065.43 2309.57,2065.43 1723.5,2265.76 1716.95,2268 
					1710.41,2265.76 1124.43,2065.32 1137.42,2065.32 551.35,2265.65 544.87,2267.86 538.42,2265.65 -47.57,2065.21 -34.75,2065.21 
					-620.82,2265.53 -627.21,2267.72 -633.58,2265.53 -1215.84,2066.38 				"/>
				<polygon class="st4" points="-1203.18,1982.52 -620.82,2181.56 -633.58,2181.56 -47.57,1981.12 -41.17,1978.93 -34.75,1981.12 
					551.35,2181.45 538.42,2181.45 1124.4,1981.01 1130.91,1978.79 1137.43,1981.01 1723.5,2181.33 1710.41,2181.33 2296.4,1980.9 
					2302.99,1978.64 2309.59,1980.9 2895.66,2181.23 2882.41,2181.23 3468.39,1980.81 3481.7,1999 2895.66,2199.34 2889.03,2201.61 
					2882.41,2199.34 2296.42,1998.9 2309.57,1998.9 1723.5,2199.23 1716.95,2201.47 1710.41,2199.23 1124.43,1998.79 
					1137.42,1998.79 551.35,2199.12 544.87,2201.32 538.42,2199.12 -47.57,1998.68 -34.75,1998.68 -620.82,2199 -627.21,2201.19 
					-633.58,2199 -1215.84,1999.85 				"/>
				<polygon class="st4" points="-1203.18,1916 -620.82,2115.04 -633.58,2115.04 -47.57,1914.6 -41.17,1912.4 -34.75,1914.6 
					551.35,2114.93 538.42,2114.93 1124.4,1914.48 1130.91,1912.26 1137.43,1914.48 1723.5,2114.81 1710.41,2114.81 2296.4,1914.37 
					2302.99,1912.12 2309.59,1914.37 2895.66,2114.69 2882.41,2114.69 3468.39,1914.29 3481.7,1932.48 2895.66,2132.82 
					2889.03,2135.09 2882.41,2132.82 2296.4,1932.38 2309.59,1932.38 1723.5,2132.71 1716.95,2134.94 1710.41,2132.71 
					1124.43,1932.27 1137.42,1932.27 551.35,2132.6 544.87,2134.81 538.42,2132.6 -47.57,1932.16 -34.75,1932.16 -620.82,2132.48 
					-627.21,2134.67 -633.58,2132.48 -1215.84,1933.33 				"/>
				<polygon class="st4" points="-1203.18,1849.47 -620.82,2048.5 -633.58,2048.5 -47.59,1848.06 -41.17,1845.86 -34.74,1848.06 
					551.35,2048.38 538.42,2048.38 1124.4,1847.95 1130.91,1845.72 1137.43,1847.95 1723.52,2048.27 1710.39,2048.27 
					2296.4,1847.83 2302.99,1845.57 2309.59,1847.83 2895.67,2048.15 2882.39,2048.15 3468.36,1847.72 3481.73,1865.99 
					2895.67,2066.31 2889.03,2068.58 2882.39,2066.31 2296.4,1865.87 2309.59,1865.87 1723.52,2066.19 1716.95,2068.43 
					1710.39,2066.19 1124.4,1865.75 1137.43,1865.75 551.35,2066.07 544.87,2068.29 538.42,2066.07 -47.57,1865.64 -34.75,1865.64 
					-620.82,2065.96 -627.21,2068.14 -633.58,2065.96 -1215.84,1866.81 				"/>
				<polygon class="st4" points="-1203.13,1782.91 -620.84,1981.98 -633.56,1981.98 -47.57,1781.54 -41.17,1779.35 -34.75,1781.54 
					551.35,1981.86 538.42,1981.86 1124.4,1781.42 1130.91,1779.2 1137.43,1781.42 1723.5,1981.74 1710.41,1981.74 2296.4,1781.3 
					2302.99,1779.04 2309.59,1781.3 2895.67,1981.63 2882.39,1981.63 3468.39,1781.23 3481.7,1799.42 2895.67,1999.79 
					2889.03,2002.06 2882.39,1999.79 2296.4,1799.34 2309.59,1799.34 1723.52,1999.66 1716.95,2001.91 1710.39,1999.66 
					1124.4,1799.22 1137.43,1799.22 551.35,1999.54 544.87,2001.75 538.42,1999.54 -47.57,1799.1 -34.75,1799.1 -620.82,1999.42 
					-627.21,2001.61 -633.58,1999.42 -1215.87,1800.32 				"/>
				<polygon class="st4" points="-1203.13,1716.37 -620.85,1915.48 -633.55,1915.48 -47.57,1715.03 -41.17,1712.84 -34.75,1715.03 
					551.31,1915.35 538.44,1915.35 1124.43,1714.9 1130.91,1712.68 1137.42,1714.9 1723.5,1915.22 1710.41,1915.22 2296.4,1714.78 
					2302.99,1712.52 2309.59,1714.78 2895.67,1915.09 2882.39,1915.09 3468.39,1714.7 3481.7,1732.9 2895.67,1933.25 
					2889.03,1935.53 2882.39,1933.25 2296.4,1732.81 2309.59,1732.81 1723.5,1933.13 1716.95,1935.36 1710.41,1933.13 
					1124.43,1732.68 1137.42,1732.68 551.31,1933 544.87,1935.21 538.44,1933 -47.56,1732.55 -34.77,1732.55 -620.84,1932.87 
					-627.21,1935.04 -633.56,1932.87 -1215.87,1733.78 				"/>
				<polygon class="st4" points="-1203.13,1649.85 -620.81,1848.88 -633.6,1848.89 -47.6,1648.45 -41.17,1646.24 -34.72,1648.45 
					551.36,1848.77 538.41,1848.77 1124.38,1648.34 1130.91,1646.1 1137.45,1648.34 1723.53,1848.67 1710.38,1848.67 
					2296.39,1648.23 2302.99,1645.97 2309.6,1648.23 2895.69,1848.56 2882.38,1848.56 3468.36,1648.14 3481.73,1666.41 
					2895.69,1866.74 2889.03,1869.01 2882.38,1866.74 2296.39,1666.3 2309.6,1666.3 1723.53,1866.63 1716.95,1868.87 
					1710.38,1866.63 1124.38,1666.19 1137.45,1666.19 551.38,1866.52 544.87,1868.74 538.38,1866.52 -47.6,1666.08 -34.72,1666.08 
					-620.79,1866.41 -627.21,1868.6 -633.61,1866.41 -1215.87,1667.26 				"/>
				<polygon class="st4" points="-1203.13,1583.32 -620.81,1782.35 -633.6,1782.35 -47.6,1581.92 -41.17,1579.72 -34.72,1581.92 
					551.36,1782.24 538.41,1782.24 1124.38,1581.81 1130.91,1579.57 1137.45,1581.81 1723.53,1782.14 1710.38,1782.14 
					2296.39,1581.7 2302.99,1579.44 2309.6,1581.7 2895.69,1782.02 2882.38,1782.02 3468.36,1581.6 3481.73,1599.88 
					2895.69,1800.22 2889.03,1802.49 2882.38,1800.22 2296.39,1599.78 2309.6,1599.78 1723.53,1800.1 1716.95,1802.35 
					1710.38,1800.1 1124.38,1599.66 1137.45,1599.66 551.38,1800 544.87,1802.21 538.38,1800 -47.6,1599.55 -34.72,1599.55 
					-620.79,1799.88 -627.21,1802.07 -633.61,1799.89 -1215.87,1600.73 				"/>
				<polygon class="st4" points="-1203.1,1516.75 -620.81,1715.83 -633.6,1715.83 -47.6,1515.39 -41.17,1513.19 -34.72,1515.39 
					551.36,1715.72 538.41,1715.72 1124.38,1515.28 1130.91,1513.05 1137.45,1515.28 1723.53,1715.61 1710.38,1715.61 
					2296.39,1515.17 2302.99,1512.9 2309.6,1515.17 2895.69,1715.49 2882.38,1715.49 3468.36,1515.08 3481.73,1533.35 
					2895.69,1733.69 2889.03,1735.97 2882.38,1733.69 2296.39,1533.25 2309.6,1533.25 1723.53,1733.57 1716.95,1735.83 
					1710.38,1733.57 1124.38,1533.14 1137.45,1533.14 551.38,1733.46 544.87,1735.68 538.38,1733.46 -47.6,1533.03 -34.72,1533.03 
					-620.81,1733.35 -627.21,1735.54 -633.6,1733.35 -1215.91,1534.25 				"/>
				<polygon class="st4" points="-1203.1,1450.22 -620.82,1649.33 -633.58,1649.33 -47.59,1448.88 -41.17,1446.68 -34.74,1448.88 
					551.36,1649.21 538.41,1649.21 1124.38,1448.76 1130.91,1446.54 1137.45,1448.76 1723.52,1649.09 1710.39,1649.09 
					2296.39,1448.65 2302.99,1446.38 2309.6,1448.65 2895.69,1648.97 2882.38,1648.97 3468.36,1448.55 3481.73,1466.82 
					2895.69,1667.16 2889.03,1669.44 2882.38,1667.16 2296.39,1466.72 2309.6,1466.72 1723.53,1667.04 1716.95,1669.28 
					1710.38,1667.04 1124.38,1466.6 1137.45,1466.6 551.36,1666.92 544.87,1669.14 538.41,1666.92 -47.59,1466.48 -34.74,1466.48 
					-620.82,1666.8 -627.21,1668.99 -633.58,1666.8 -1215.91,1467.72 				"/>
				<polygon class="st4" points="-1203.1,1383.7 -620.78,1582.74 -633.63,1582.74 -47.65,1382.31 -41.17,1380.1 -34.68,1382.31 
					551.39,1582.64 538.36,1582.64 1124.37,1382.21 1130.91,1379.97 1137.46,1382.21 1723.55,1582.54 1710.36,1582.54 
					2296.37,1382.1 2302.99,1379.83 2309.62,1382.1 2895.69,1582.43 2882.38,1582.43 3468.36,1382.03 3481.73,1400.3 
					2895.69,1600.65 2889.03,1602.92 2882.38,1600.65 2296.37,1400.22 2309.62,1400.22 1723.55,1600.55 1716.95,1602.79 
					1710.36,1600.55 1124.37,1400.11 1137.46,1400.11 551.39,1600.44 544.87,1602.67 538.36,1600.44 -47.63,1400.01 -34.71,1400.01 
					-620.78,1600.34 -627.21,1602.54 -633.63,1600.34 -1215.91,1401.19 				"/>
				<polygon class="st4" points="-1203.1,1317.17 -620.78,1516.22 -633.63,1516.22 -47.65,1315.78 -41.17,1313.56 -34.68,1315.78 
					551.39,1516.11 538.36,1516.11 1124.35,1315.67 1130.91,1313.43 1137.48,1315.67 1723.55,1516 1710.36,1516 2296.35,1315.56 
					2302.99,1313.29 2309.63,1315.56 2895.7,1515.89 2882.36,1515.89 3468.33,1315.46 3481.76,1333.81 2895.7,1534.14 
					2889.03,1536.42 2882.36,1534.14 2296.35,1333.7 2309.63,1333.7 1723.55,1534.03 1716.95,1536.28 1710.36,1534.03 
					1124.35,1333.59 1137.48,1333.59 551.39,1533.92 544.87,1536.15 538.36,1533.92 -47.65,1333.48 -34.68,1333.48 -620.78,1533.81 
					-627.21,1536.01 -633.63,1533.81 -1215.91,1334.67 				"/>
				<polygon class="st4" points="-1203.07,1250.6 -620.78,1449.69 -633.63,1449.69 -47.65,1249.25 -41.17,1247.04 -34.68,1249.25 
					551.39,1449.58 538.36,1449.58 1124.35,1249.14 1130.91,1246.9 1137.48,1249.14 1723.55,1449.47 1710.36,1449.47 
					2296.35,1249.03 2302.99,1246.77 2309.63,1249.03 2895.7,1449.36 2882.36,1449.36 3468.33,1248.93 3481.76,1267.28 
					2895.7,1467.61 2889.03,1469.89 2882.36,1467.61 2296.35,1267.17 2309.63,1267.17 1723.55,1467.5 1716.95,1469.75 
					1710.36,1467.5 1124.37,1267.06 1137.46,1267.06 551.39,1467.38 544.87,1469.61 538.36,1467.38 -47.63,1266.95 -34.71,1266.95 
					-620.78,1467.28 -627.21,1469.47 -633.63,1467.28 -1215.94,1268.18 				"/>
				<polygon class="st4" points="-1203.07,1184.08 -620.79,1383.18 -633.61,1383.18 -47.63,1182.74 -41.17,1180.53 -34.71,1182.74 
					551.38,1383.07 538.38,1383.07 1124.37,1182.62 1130.91,1180.39 1137.46,1182.62 1723.55,1382.95 1710.36,1382.95 
					2296.35,1182.5 2302.99,1180.23 2309.63,1182.5 2895.7,1382.83 2882.36,1382.83 3468.33,1182.4 3481.76,1200.76 2895.7,1401.09 
					2889.03,1403.37 2882.36,1401.09 2296.37,1200.64 2309.62,1200.64 1723.55,1400.97 1716.95,1403.22 1710.36,1400.97 
					1124.37,1200.52 1137.46,1200.52 551.38,1400.85 544.87,1403.07 538.38,1400.85 -47.63,1200.41 -34.71,1200.41 -620.79,1400.73 
					-627.21,1402.92 -633.61,1400.73 -1215.94,1201.65 				"/>
				<polygon class="st4" points="-1203.06,1117.51 -620.76,1316.6 -633.66,1316.6 -47.66,1116.17 -41.17,1113.95 -34.66,1116.17 
					551.41,1316.5 538.34,1316.5 1124.34,1116.06 1130.91,1113.82 1137.49,1116.06 1723.56,1316.4 1710.35,1316.4 2296.35,1115.96 
					2302.99,1113.69 2309.63,1115.96 2895.72,1316.3 2882.35,1316.3 3468.33,1115.87 3481.76,1134.23 2895.72,1334.56 
					2889.03,1336.85 2882.35,1334.56 2296.35,1134.13 2309.63,1134.13 1723.56,1334.46 1716.95,1336.72 1710.35,1334.46 
					1124.35,1134.03 1137.48,1134.03 551.41,1334.36 544.87,1336.59 538.34,1334.36 -47.66,1133.93 -34.66,1133.93 -620.76,1334.25 
					-627.21,1336.46 -633.66,1334.25 -1215.95,1135.16 				"/>
				<polygon class="st4" points="-1203.07,1051.02 -620.75,1250.06 -633.67,1250.06 -47.66,1049.63 -41.17,1047.41 -34.66,1049.63 
					551.41,1249.96 538.34,1249.96 1124.34,1049.53 1130.91,1047.28 1137.49,1049.53 1723.56,1249.86 1710.35,1249.86 
					2296.34,1049.43 2302.99,1047.15 2309.65,1049.43 2895.72,1249.76 2882.35,1249.76 3468.33,1049.34 3481.76,1067.7 
					2895.72,1268.04 2889.03,1270.33 2882.35,1268.04 2296.34,1067.61 2309.65,1067.61 1723.56,1267.93 1716.95,1270.2 
					1710.35,1267.93 1124.34,1067.5 1137.49,1067.5 551.42,1267.84 544.87,1270.07 538.33,1267.84 -47.66,1067.4 -34.66,1067.4 
					-620.75,1267.73 -627.21,1269.95 -633.67,1267.73 -1215.94,1068.59 				"/>
				<polygon class="st4" points="-1203.06,984.45 -620.76,1183.55 -633.66,1183.55 -47.66,983.12 -41.17,980.9 -34.66,983.12 
					551.41,1183.44 538.34,1183.44 1124.34,983.01 1130.91,980.76 1137.49,983.01 1723.56,1183.34 1710.35,1183.34 2296.34,982.9 
					2302.99,980.62 2309.65,982.9 2895.72,1183.23 2882.35,1183.23 3468.33,982.82 3481.76,1001.17 2895.72,1201.52 2889.03,1203.8 
					2882.35,1201.52 2296.35,1001.08 2309.63,1001.08 1723.56,1201.41 1716.95,1203.66 1710.35,1201.41 1124.34,1000.97 
					1137.49,1000.97 551.41,1201.3 544.87,1203.53 538.34,1201.3 -47.66,1000.86 -34.66,1000.86 -620.76,1201.19 -627.21,1203.4 
					-633.66,1201.19 -1215.95,1002.1 				"/>
				<polygon class="st4" points="-1203.03,917.89 -620.78,1117.05 -633.63,1117.05 -47.65,916.6 -41.17,914.39 -34.68,916.6 
					551.39,1116.93 538.36,1116.93 1124.35,916.49 1130.91,914.24 1137.48,916.49 1723.56,1116.81 1710.35,1116.81 2296.34,916.37 
					2302.99,914.1 2309.65,916.37 2895.72,1116.7 2882.35,1116.7 3468.33,916.28 3481.76,934.64 2895.72,1134.99 2889.03,1137.28 
					2882.35,1134.99 2296.35,934.55 2309.63,934.55 1723.56,1134.88 1716.95,1137.13 1710.35,1134.88 1124.35,934.43 
					1137.48,934.43 551.41,1134.75 544.87,1136.99 538.34,1134.75 -47.65,934.32 -34.68,934.32 -620.78,1134.64 -627.19,1136.84 
					-633.63,1134.64 -1215.98,935.61 				"/>
				<polygon class="st5" points="-1203.03,851.36 -620.73,1050.47 -633.69,1050.47 -47.68,850.04 -41.17,847.81 -34.65,850.04 
					551.42,1050.37 538.33,1050.37 1124.32,849.93 1130.91,847.68 1137.51,849.93 1723.58,1050.27 1710.33,1050.27 2296.34,849.84 
					2302.99,847.56 2309.65,849.84 2895.72,1050.16 2882.35,1050.16 3468.33,849.76 3481.76,868.12 2895.73,1068.47 
					2889.03,1070.77 2882.33,1068.47 2296.34,868.04 2309.65,868.04 1723.58,1068.38 1716.95,1070.64 1710.33,1068.38 
					1124.32,867.94 1137.51,867.94 551.42,1068.28 544.87,1070.52 538.33,1068.28 -47.68,867.84 -34.65,867.84 -620.73,1068.18 
					-627.21,1070.39 -633.69,1068.18 -1215.98,869.09 				"/>
				<polygon class="st4" points="-1203.03,784.83 -620.75,983.96 -633.67,983.96 -47.66,783.52 -41.17,781.3 -34.66,783.52 
					551.42,983.86 538.33,983.86 1124.34,783.42 1130.91,781.16 1137.49,783.42 1723.58,983.75 1710.33,983.75 2296.34,783.3 
					2302.99,781.03 2309.65,783.3 2895.73,983.64 2882.33,983.64 3468.33,783.24 3481.76,801.59 2895.73,1001.95 2889.03,1004.24 
					2882.33,1001.95 2296.34,801.51 2309.65,801.51 1723.58,1001.84 1716.95,1004.1 1710.33,1001.84 1124.34,801.4 1137.49,801.4 
					551.42,1001.73 544.87,1003.96 538.33,1001.73 -47.66,801.29 -34.66,801.29 -620.75,1001.62 -627.21,1003.83 -633.67,1001.62 
					-1215.98,802.56 				"/>
				<polygon class="st4" points="-1203.03,718.31 -620.69,917.36 -633.72,917.36 -47.71,716.93 -41.17,714.7 -34.62,716.93 
					551.45,917.27 538.3,917.27 1124.31,716.85 1130.91,714.59 1137.52,716.85 1723.59,917.18 1710.32,917.18 2296.33,716.76 
					2302.99,714.48 2309.66,716.76 2895.73,917.1 2882.33,917.1 3468.33,716.71 3481.76,735.06 2895.73,935.43 2889.03,937.72 
					2882.33,935.43 2296.33,735.01 2309.66,735.01 1723.59,935.34 1716.95,937.61 1710.32,935.34 1124.31,734.92 1137.52,734.92 
					551.45,935.26 544.87,937.5 538.3,935.26 -47.71,734.83 -34.62,734.83 -620.69,935.17 -627.21,937.4 -633.72,935.17 
					-1215.98,736.03 				"/>
				<polygon class="st4" points="-1203,651.74 -620.69,850.83 -633.72,850.83 -47.71,650.41 -41.17,648.17 -34.62,650.41 
					551.45,850.75 538.3,850.75 1124.31,650.32 1130.91,648.06 1137.52,650.32 1723.59,850.66 1710.32,850.66 2296.33,650.23 
					2302.99,647.95 2309.66,650.23 2895.73,850.57 2882.33,850.57 3468.33,650.18 3481.76,668.54 2895.73,868.9 2889.03,871.2 
					2882.33,868.9 2296.33,668.47 2309.66,668.47 1723.59,868.82 1716.95,871.08 1710.32,868.82 1124.31,668.39 1137.52,668.39 
					551.45,868.73 544.87,870.97 538.3,868.73 -47.71,668.3 -34.62,668.3 -620.69,868.64 -627.21,870.86 -633.72,868.64 
					-1216.01,669.54 				"/>
				<polygon class="st4" points="-1203,585.21 -620.72,784.33 -633.7,784.33 -47.7,583.9 -41.17,581.66 -34.63,583.9 551.44,784.23 
					538.31,784.23 1124.31,583.8 1130.91,581.54 1137.52,583.8 1723.59,784.13 1710.32,784.13 2296.33,583.7 2302.99,581.42 
					2309.66,583.7 2895.73,784.03 2882.33,784.03 3468.33,583.65 3481.76,602.01 2895.73,802.38 2889.03,804.68 2882.33,802.38 
					2296.33,601.95 2309.66,601.95 1723.59,802.28 1716.95,804.55 1710.32,802.28 1124.31,601.85 1137.52,601.85 551.45,802.18 
					544.87,804.43 538.3,802.18 -47.7,601.75 -34.63,601.75 -620.72,802.09 -627.21,804.31 -633.7,802.09 -1216.01,603.01 				"/>
				<polygon class="st4" points="-1202.96,518.64 -620.66,717.74 -633.75,717.74 -47.74,517.32 -41.17,515.07 -34.59,517.32 
					551.47,717.66 538.28,717.66 1124.29,517.24 1130.91,514.97 1137.54,517.24 1723.61,717.58 1710.3,717.58 2296.31,517.16 
					2302.99,514.87 2309.68,517.16 2895.73,717.5 2882.33,717.5 3468.33,517.12 3481.76,535.48 2895.75,735.86 2889.03,738.15 
					2882.32,735.86 2296.31,535.44 2309.68,535.44 1723.61,735.78 1716.95,738.06 1710.3,735.78 1124.29,535.35 1137.54,535.35 
					551.47,735.7 544.87,737.96 538.28,735.7 -47.73,535.28 -34.6,535.28 -620.66,735.62 -627.21,737.85 -633.75,735.62 
					-1216.04,536.53 				"/>
				<polygon class="st4" points="-1202.96,452.11 -620.67,651.22 -633.73,651.22 -47.73,450.8 -41.17,448.55 -34.6,450.8 
					551.47,651.14 538.28,651.14 1124.29,450.71 1130.91,448.45 1137.54,450.71 1723.61,651.05 1710.3,651.05 2296.31,450.62 
					2302.99,448.34 2309.68,450.62 2895.73,650.98 2882.33,650.98 3468.33,450.6 3481.76,468.95 2895.75,669.33 2889.03,671.62 
					2882.32,669.33 2296.31,468.92 2309.68,468.92 1723.61,669.26 1716.95,671.53 1710.3,669.26 1124.29,468.83 1137.54,468.83 
					551.47,669.17 544.87,671.42 538.28,669.17 -47.73,468.74 -34.6,468.74 -620.67,669.08 -627.21,671.31 -633.73,669.08 
					-1216.04,470 				"/>
				<polygon class="st4" points="-1202.96,385.58 -620.69,584.71 -633.72,584.71 -47.73,384.28 -41.17,382.04 -34.6,384.28 
					551.47,584.61 538.28,584.61 1124.29,384.18 1130.91,381.92 1137.54,384.18 1723.61,584.52 1710.3,584.52 2296.29,384.08 
					2302.99,381.79 2309.7,384.08 2895.73,584.44 2882.33,584.44 3468.33,384.07 3481.76,402.43 2895.75,602.8 2889.03,605.1 
					2882.32,602.8 2296.29,402.4 2309.7,402.4 1723.61,602.73 1716.95,605.01 1710.3,602.73 1124.29,402.3 1137.54,402.3 
					551.47,602.64 544.87,604.88 538.28,602.64 -47.71,402.2 -34.62,402.2 -620.69,602.54 -627.21,604.76 -633.72,602.54 
					-1216.04,403.48 				"/>
				<polygon class="st4" points="-1202.93,319.02 -620.64,518.13 -633.76,518.13 -47.76,317.7 -41.17,315.45 -34.57,317.7 
					551.5,518.05 538.25,518.05 1124.26,317.63 1130.91,315.35 1137.57,317.63 1723.64,517.96 1710.27,517.96 2296.28,317.54 
					2302.99,315.25 2309.71,317.54 2895.73,517.92 2882.33,517.92 3468.33,317.54 3481.76,335.9 2895.75,536.28 2889.04,538.58 
					2882.32,536.28 2296.29,335.89 2309.7,335.89 1723.64,536.23 1716.95,538.52 1710.27,536.23 1124.26,335.81 1137.57,335.81 
					551.5,536.16 544.87,538.42 538.25,536.16 -47.76,335.73 -34.57,335.73 -620.64,536.07 -627.21,538.32 -633.76,536.07 
					-1216.07,336.99 				"/>
				<polygon class="st4" points="-1202.93,252.5 -620.64,451.59 -633.76,451.6 -47.76,251.17 -41.17,248.92 -34.57,251.17 
					551.5,451.52 538.25,451.52 1124.26,251.09 1130.91,248.81 1137.57,251.09 1723.64,451.43 1710.27,451.43 2296.28,251.02 
					2302.99,248.72 2309.71,251.02 2895.73,451.4 2882.33,451.4 3468.33,251.02 3481.76,269.37 2895.75,469.75 2889.04,472.04 
					2882.32,469.75 2296.29,269.37 2309.7,269.37 1723.64,469.71 1716.95,472 1710.27,469.71 1124.26,269.29 1137.57,269.29 
					551.5,469.63 544.87,471.89 538.25,469.63 -47.76,269.2 -34.57,269.2 -620.64,469.55 -627.21,471.79 -633.76,469.55 
					-1216.07,270.46 				"/>
				<polygon class="st4" points="-1202.93,185.97 -620.64,385.08 -633.76,385.08 -47.76,184.66 -41.17,182.4 -34.57,184.66 
					551.5,384.99 538.25,384.99 1124.26,184.56 1130.91,182.29 1137.57,184.56 1723.64,384.9 1710.27,384.9 2296.28,184.49 
					2302.99,182.19 2309.71,184.49 2895.73,384.87 2882.33,384.87 3468.33,184.49 3481.76,202.84 2895.75,403.22 2889.04,405.52 
					2882.32,403.22 2296.29,202.84 2309.7,202.84 1723.64,403.19 1716.95,405.47 1710.27,403.19 1124.26,202.76 1137.57,202.76 
					551.5,403.1 544.87,405.36 538.25,403.1 -47.76,202.67 -34.57,202.67 -620.64,403.01 -627.21,405.24 -633.76,403.01 
					-1216.07,203.93 				"/>
				<polygon class="st4" points="-1202.92,119.4 -620.61,318.5 -633.8,318.5 -47.79,118.08 -41.17,115.82 -34.54,118.08 
					551.51,318.43 538.24,318.43 1124.25,118.02 1130.91,115.74 1137.59,118.02 1723.64,318.36 1710.27,318.36 2296.28,117.96 
					2302.99,115.66 2309.71,117.96 2895.73,318.34 2882.33,318.34 3468.33,117.96 3481.76,136.32 2895.75,336.7 2889.04,338.99 
					2882.32,336.7 2296.29,136.31 2309.7,136.31 1723.66,336.67 1716.95,338.96 1710.25,336.67 1124.25,136.25 1137.59,136.25 
					551.51,336.6 544.87,338.87 538.24,336.6 -47.79,136.18 -34.54,136.18 -620.61,336.53 -627.21,338.78 -633.8,336.53 
					-1216.11,137.44 				"/>
				<polygon class="st4" points="-1202.92,52.88 -620.63,251.98 -633.78,251.98 -47.77,51.57 -41.17,49.31 -34.55,51.57 
					551.51,251.91 538.24,251.91 1124.25,51.48 1130.91,49.21 1137.59,51.48 1723.66,251.83 1710.25,251.83 2296.28,51.43 
					2302.99,49.13 2309.71,51.43 2895.73,251.81 2882.33,251.81 3468.33,51.43 3481.76,69.79 2895.75,270.16 2889.04,272.46 
					2882.32,270.16 2296.29,69.78 2309.7,69.78 1723.66,270.14 1716.95,272.43 1710.25,270.14 1124.25,69.72 1137.59,69.72 
					551.51,270.07 544.87,272.34 538.24,270.07 -47.77,69.65 -34.55,69.65 -620.61,269.99 -627.21,272.24 -633.8,269.99 
					-1216.11,70.92 				"/>
				<polygon class="st4" points="-1202.92,-13.66 -620.63,185.47 -633.78,185.47 -47.77,-14.95 -41.17,-17.21 -34.55,-14.95 
					551.51,185.38 538.24,185.38 1124.25,-15.04 1130.91,-17.32 1137.59,-15.04 1723.66,185.3 1710.25,185.3 2296.28,-15.1 
					2302.99,-17.39 2309.71,-15.1 2895.73,185.28 2882.33,185.28 3468.33,-15.1 3481.76,3.26 2895.75,203.64 2889.04,205.93 
					2882.32,203.64 2296.29,3.25 2309.7,3.25 1723.66,203.62 1716.95,205.91 1710.25,203.62 1124.25,3.2 1137.59,3.2 551.51,203.53 
					544.87,205.8 538.24,203.53 -47.77,3.11 -34.55,3.11 -620.63,203.45 -627.21,205.7 -633.78,203.45 -1216.11,4.39 				"/>
				<polygon class="st4" points="-1202.92,-80.18 -620.58,118.88 -633.83,118.88 -47.8,-81.53 -41.17,-83.8 -34.52,-81.53 
					551.53,118.82 538.22,118.82 1124.23,-81.59 1130.91,-83.87 1137.6,-81.59 1723.66,118.77 1710.25,118.77 2296.28,-81.63 
					2302.99,-83.93 2309.71,-81.63 2895.73,118.76 2882.33,118.76 3468.33,-81.62 3481.76,-63.27 2895.75,137.11 2889.04,139.4 
					2882.32,137.11 2296.29,-63.27 2309.7,-63.27 1723.66,137.1 1716.95,139.39 1710.25,137.1 1124.23,-63.31 1137.6,-63.31 
					551.55,137.04 544.87,139.32 538.21,137.04 -47.8,-63.37 -34.52,-63.37 -620.58,136.98 -627.21,139.25 -633.83,136.98 
					-1216.11,-62.14 				"/>
				<polygon class="st4" points="-1202.89,-146.75 -620.59,52.36 -633.81,52.36 -47.8,-148.05 -41.17,-150.32 -34.52,-148.05 
					551.53,52.3 538.22,52.3 1124.23,-148.12 1130.91,-150.41 1137.6,-148.12 1723.66,52.23 1710.25,52.23 2296.28,-148.16 
					2302.99,-150.45 2309.71,-148.16 2895.73,52.22 2882.33,52.22 3468.33,-148.15 3481.76,-129.79 2895.75,70.58 2889.04,72.88 
					2882.32,70.58 2296.29,-129.8 2309.7,-129.8 1723.66,70.58 1716.95,72.87 1710.25,70.58 1124.23,-129.84 1137.6,-129.84 
					551.53,70.51 544.87,72.79 538.22,70.51 -47.8,-129.9 -34.52,-129.9 -620.59,70.45 -627.21,72.71 -633.81,70.45 
					-1216.14,-128.63 				"/>
				<polygon class="st4" points="-1202.89,-213.27 -620.59,-14.15 -633.81,-14.15 -47.8,-214.57 -41.17,-216.84 -34.52,-214.57 
					551.53,-14.23 538.22,-14.23 1124.23,-214.65 1130.91,-216.94 1137.6,-214.65 1723.66,-14.3 1710.25,-14.3 2296.28,-214.68 
					2302.99,-216.97 2309.71,-214.68 2895.73,-14.3 2882.33,-14.3 3468.33,-214.68 3481.76,-196.32 2895.75,4.06 2889.04,6.35 
					2882.32,4.06 2296.29,-196.33 2309.7,-196.33 1723.67,4.06 1716.95,6.35 1710.24,4.06 1124.23,-196.35 1137.6,-196.35 
					551.55,3.99 544.87,6.27 538.21,3.99 -47.8,-196.43 -34.52,-196.43 -620.59,3.91 -627.21,6.17 -633.81,3.91 -1216.14,-195.15 
									"/>
				<polygon class="st4" points="-1202.89,-279.8 -620.56,-80.72 -633.84,-80.72 -47.82,-281.12 -41.17,-283.39 -34.51,-281.12 
					551.53,-80.75 538.22,-80.75 1124.25,-281.15 1130.91,-283.43 1137.59,-281.15 1723.62,-80.78 1710.29,-80.78 2296.31,-281.18 
					2302.99,-283.46 2309.68,-281.18 2895.73,-80.81 2882.33,-80.81 3468.33,-281.2 3481.76,-262.85 2895.73,-62.49 2889.03,-60.2 
					2882.33,-62.49 2296.31,-262.88 2309.68,-262.88 1723.64,-62.52 1716.95,-60.23 1710.27,-62.52 1124.25,-262.91 
					1137.59,-262.91 551.53,-62.54 544.87,-60.26 538.22,-62.54 -47.8,-262.94 -34.52,-262.94 -620.56,-62.57 -627.21,-60.31 
					-633.84,-62.57 -1216.14,-261.68 				"/>
				<polygon class="st4" points="-1202.86,-346.37 -620.55,-147.28 -633.86,-147.28 -47.83,-347.68 -41.17,-349.95 -34.49,-347.68 
					551.55,-147.3 538.21,-147.3 1124.23,-347.69 1130.91,-349.98 1137.6,-347.69 1723.64,-147.32 1710.27,-147.32 2296.29,-347.71 
					2302.99,-350 2309.7,-347.71 2895.73,-147.34 2882.33,-147.34 3468.33,-347.73 3481.76,-329.37 2895.73,-129.01 
					2889.03,-126.72 2882.33,-129.01 2296.29,-329.4 2309.7,-329.4 1723.64,-129.03 1716.95,-126.74 1710.27,-129.03 
					1124.23,-329.42 1137.6,-329.42 551.55,-129.04 544.87,-126.77 538.21,-129.04 -47.83,-329.44 -34.49,-329.44 -620.55,-129.07 
					-627.21,-126.79 -633.86,-129.07 -1216.17,-328.17 				"/>
				<polygon class="st4" points="-1202.83,-412.93 -620.52,-213.85 -633.89,-213.85 -47.85,-414.23 -41.17,-416.52 -34.48,-414.23 
					551.56,-213.86 538.19,-213.86 1124.22,-414.24 1130.91,-416.53 1137.62,-414.24 1723.66,-213.87 1710.25,-213.87 
					2296.29,-414.26 2302.99,-416.54 2309.7,-414.26 2895.73,-213.88 2882.33,-213.88 3468.33,-414.26 3481.76,-395.9 
					2895.73,-195.53 2889.03,-193.23 2882.33,-195.53 2296.29,-395.92 2309.7,-395.92 1723.66,-195.54 1716.95,-193.26 
					1710.25,-195.54 1124.22,-395.93 1137.62,-395.93 551.56,-195.55 544.87,-193.27 538.19,-195.55 -47.85,-395.94 -34.48,-395.94 
					-620.52,-195.56 -627.21,-193.28 -633.89,-195.56 -1216.2,-394.66 				"/>
				<polygon class="st4" points="-1202.83,-479.46 -620.52,-280.37 -633.89,-280.37 -47.85,-480.76 -41.17,-483.05 -34.48,-480.76 
					551.56,-280.38 538.19,-280.38 1124.22,-480.77 1130.91,-483.06 1137.62,-480.77 1723.66,-280.39 1710.25,-280.39 
					2296.29,-480.78 2302.99,-483.07 2309.7,-480.78 2895.73,-280.4 2882.33,-280.4 3468.33,-480.79 3481.76,-462.43 
					2895.73,-262.06 2889.03,-259.77 2882.33,-262.06 2296.29,-462.45 2309.7,-462.45 1723.66,-262.07 1716.95,-259.78 
					1710.25,-262.07 1124.22,-462.46 1137.62,-462.46 551.56,-262.08 544.87,-259.79 538.19,-262.08 -47.85,-462.47 -34.48,-462.47 
					-620.52,-262.09 -627.21,-259.8 -633.89,-262.09 -1216.2,-461.19 				"/>
			</g>
		</g>
		<g>
			<ellipse class="st0" cx="591.63" cy="472.94" rx="3.86" ry="4.09"/>
			<path id="XMLID_5_" class="st6" d="M526.23,359.36c0.91-0.67,1.91-1.1,2.92-1.29c0.44-0.1,0.87-0.14,1.31-0.14
				c1.97,0,3.96,0.85,5.43,2.47c15.23,16.81,64.46,72.97,76.28,109.37c5.09,15.58-11.47,25.99-21.71,17.99
				c-1.68-1.29-3.2-3.14-4.42-5.53c-15.87-31.11-46.6-90.14-61.45-111.25C521.96,367.28,522.72,361.99,526.23,359.36z"/>
			<path id="XMLID_4_" class="st7" d="M533.88,354.15c9.15-0.61,11.28-7.47,11.71-11.5c0.09-0.88,0.48-1.68,1.02-2.24
				c0.55-0.56,1.3-0.94,2.11-1.01c2.12-0.19,3.83,1.71,3.58,3.93c-0.89,9.05-11.71,16.93-11.71,16.93s-1.84,4.62-5.88,7.24
				c-12.81,13.34-23.17,35.68-23.17,35.68l4.72,7.52l2.41,3.83c1.34,2.13,1.47,4.94,0.26,7.25l-34.52,66.21
				c-0.82,1.56-2.25,2.71-3.92,3.02c-1.81,0.37-3.63,0.73-5.4,0.95c-6.04,0.75-11.53,0.37-15.35-3.49
				C472.71,459.17,523.55,362.24,533.88,354.15z"/>
			<path id="XMLID_3_" class="st8" d="M514.42,411.34l3.54,2.69c1.97,1.5,2.47,3.88,1.21,6.17l-35.89,65.53
				c-0.86,1.55-2.53,2.89-4.63,3.57c-2.27,0.77-4.53,1.54-6.77,2.16L514.42,411.34z"/>
			<path id="XMLID_2_" class="st9" d="M531.39,359.81c0.19-0.05,0.34-0.05,0.53-0.05c0.1,0,0.19,0,0.29,0
				c1.59,0.15,2.85,1.58,2.85,3.32s-1.25,3.17-2.85,3.32c-0.1,0-0.19,0-0.29,0c-0.19,0-0.39,0-0.53-0.05
				c-1.5-0.26-2.65-1.63-2.65-3.32C528.74,361.34,529.9,359.96,531.39,359.81z"/>
			<path id="XMLID_1_" class="st10" d="M531.92,359.71c0.1,0,0.19,0,0.29,0v6.69c-0.1,0-0.19,0-0.29,0c-0.19,0-0.39,0-0.53-0.05
				v-6.64C531.58,359.71,531.73,359.66,531.92,359.71z"/>
			<polygon class="st11" points="536.14,351.2 395,240.71 388.04,216.44 345.8,282.36 457.57,443.73 			"/>
			<polygon class="st11" points="536.54,351.2 677.69,240.71 684.64,216.44 726.89,282.36 615.11,443.73 			"/>
		</g>
		<path class="st12" d="M866.41,191.61l2.76,449.69c0.14,22.8-8.18,43.91-21.83,55.38L606.1,899.44
			c-37.4,31.43-98.91,31.76-136.69,0.72l-243.7-200.19c-13.79-11.33-22.37-32.35-22.5-55.14l-2.76-452.51
			c-0.22-35.32,19.55-64.03,44.1-64.04l577.3-0.23C846.26,128.03,866.2,156.45,866.41,191.61z"/>
		<g>
			<path class="st13" d="M844.03,221.69l2.48,403.82c0.13,20.47-7.65,39.43-20.4,49.73L602.03,856.31
				c-35.67,28.83-94.33,29.14-130.36,0.69L245.41,678.33c-12.88-10.17-20.89-29.04-21.01-49.51l-2.48-406.36
				c-0.19-31.72,18.28-57.51,41.21-57.52l539.29-0.32C825.22,164.6,843.84,190.12,844.03,221.69z"/>
		</g>
		<text transform="matrix(0.6225 0 0 1 420.7119 603.1797)" class="st14 st15 st16">Gio  House</text>
		<text transform="matrix(0.6225 0 0 1 423.6382 607.0371)" class="st17"><tspan x="0" y="0" class="st18 st15 st16">Gio  House</tspan></text>
		<text transform="matrix(1.2129 0 0 1 416.7061 651.3164)" class="st19 st20 st21">Bespoke</text>
		<text transform="matrix(1.2129 0 0 1 546.2871 651.3164)" class="st19 st20 st21">| Barber</text>
	</g>
</g>
</svg>
